<svg width="40" height="40" viewBox="0 0 40 40" fill="none" xmlns="http://www.w3.org/2000/svg">
<circle cx="20" cy="20" r="20" fill="#2E8D9A"/>
<path fill-rule="evenodd" clip-rule="evenodd" d="M15.9359 27.0133C16.8221 28.2757 17.8604 29.7548 19.0751 31.5158C19.522 32.1614 20.478 32.1614 20.9249 31.5158C22.1397 29.7548 23.1779 28.2757 24.0641 27.0133C28.1465 21.1974 29 19.9815 29 17C29 12.0294 24.9706 8 20 8C15.0294 8 11 12.0294 11 17C11 19.9815 11.8535 21.1974 15.9359 27.0133ZM23.75 17C23.75 19.0711 22.0711 20.75 20 20.75C17.9289 20.75 16.25 19.0711 16.25 17C16.25 14.9289 17.9289 13.25 20 13.25C22.0711 13.25 23.75 14.9289 23.75 17Z" fill="white"/>
</svg>
