<svg width="24" height="25" viewBox="0 0 24 25" fill="none" xmlns="http://www.w3.org/2000/svg">
<path fill-rule="evenodd" clip-rule="evenodd" d="M10.1053 0C12.8045 0 15.3421 1.05113 17.2507 2.95978C19.1594 4.8684 20.2105 7.40603 20.2105 10.1052C20.2105 12.8045 19.1594 15.3421 17.2507 17.2507C15.3421 19.1594 12.8045 20.2105 10.1053 20.2105C7.40606 20.2105 4.86839 19.1594 2.95978 17.2507C1.05112 15.3421 0 12.8045 0 10.1052C0 7.40603 1.05112 4.8684 2.95978 2.95978C4.86839 1.05113 7.40602 0 10.1053 0ZM1.92819 10.1052C1.92819 14.6141 5.59637 18.2823 10.1052 18.2823C14.6141 18.2823 18.2822 14.6141 18.2822 10.1052C18.2822 5.59639 14.6141 1.92819 10.1053 1.92819C5.59642 1.92819 1.92819 5.59639 1.92819 10.1052Z" fill="#21823C"/>
<path d="M23.6983 23.2398L16.9187 16.4603C16.5159 16.0575 15.863 16.0575 15.4602 16.4603C15.0575 16.863 15.0575 17.516 15.4602 17.9187L22.2398 24.6982C22.4411 24.8996 22.7051 25.0003 22.969 25.0003C23.233 25.0003 23.4969 24.8996 23.6983 24.6982C24.101 24.2955 24.101 23.6425 23.6983 23.2398Z" fill="#21823C"/>
</svg>
