<svg width="22" height="25" viewBox="0 0 22 25" fill="none" xmlns="http://www.w3.org/2000/svg">
<path fill-rule="evenodd" clip-rule="evenodd" d="M4.36515 24.9998C3.52282 24.7937 2.69759 24.5636 2.0207 23.9656C1.2947 23.3242 0.802589 22.5292 0.726811 21.5859C0.531811 19.1597 0.752812 16.7782 1.93904 14.5893C2.78704 13.0243 4.1136 12.1355 5.91816 12.1221C6.34182 12.119 6.81127 12.3283 7.18383 12.5612C8.08038 13.1219 8.97327 13.6638 10.0249 13.886C11.4598 14.1891 12.7695 13.8401 14.0142 13.1401C14.1911 13.0406 14.3573 12.922 14.5283 12.8121C16.1111 11.795 17.8607 11.9795 19.2329 13.323C20.2163 14.2859 20.7429 15.4962 21.0513 16.8113C21.4247 18.4032 21.6529 20.0172 21.3897 21.645C21.1004 23.4352 19.8247 24.6231 18.0156 24.907C17.9084 24.9238 17.8054 24.9682 17.7005 24.9998H4.36515Z" fill="#2E8D9A"/>
<path fill-rule="evenodd" clip-rule="evenodd" d="M11.8111 0C13.0222 0.233001 14.1406 0.64989 15.0868 1.48789C16.9799 3.16412 17.6601 5.7969 16.7726 8.15224C15.8873 10.5019 13.6334 12.0386 11.098 12.0211C8.07354 12.0004 5.62665 9.8678 5.16309 6.84868C4.73164 4.03879 6.50754 1.187 9.24921 0.305556C9.64999 0.176667 10.0677 0.100556 10.4775 0H11.8111Z" fill="#2E8D9A"/>
</svg>
