<svg width="180" height="65" viewBox="0 0 180 65" fill="none" xmlns="http://www.w3.org/2000/svg">
<path fill-rule="evenodd" clip-rule="evenodd" d="M75.3209 28.0946C73.9122 27.1987 72.46 26.4726 70.966 25.9171C69.4703 25.3625 68.029 24.9568 66.642 24.7008C65.2542 24.444 63.9627 24.316 62.7673 24.316C60.0344 24.316 57.8452 24.8506 56.2023 25.9171C54.5585 26.9845 53.7362 28.4785 53.7362 30.4009C53.7362 32.1082 54.1946 33.4751 55.114 34.4998C56.0316 35.5237 57.227 36.3677 58.7001 37.0294C60.1732 37.692 61.8061 38.2892 63.5996 38.8229C65.3939 39.3575 67.164 39.9221 68.9157 40.5202C70.6657 41.1183 72.2885 41.8971 73.7842 42.8575C75.2782 43.8186 76.4736 45.0575 77.3704 46.5724C78.2671 48.089 78.7155 50.0214 78.7155 52.3695C78.7155 54.8891 78.0204 57.0766 76.6334 58.9337C75.2456 60.7916 73.3133 62.2329 70.838 63.2576C68.3611 64.2824 65.5219 64.7943 62.3189 64.7943C60.0988 64.7943 57.9314 64.4948 55.8183 63.8976C53.7044 63.3003 51.7077 62.4889 49.8297 61.4641C47.95 60.4394 46.2845 59.244 44.834 57.8771L47.3954 53.2018C48.8468 54.5687 50.406 55.7315 52.0715 56.6918C53.7362 57.653 55.4544 58.3799 57.227 58.8701C58.9988 59.3611 60.7178 59.6062 62.3825 59.6062C65.4993 59.6062 67.9445 58.988 69.7162 57.7492C71.488 56.5111 72.3747 54.8029 72.3747 52.6255C72.3747 50.9181 71.9263 49.5412 71.0296 48.4939C70.1328 47.4483 68.9483 46.5841 67.4752 45.8999C66.0021 45.2181 64.3784 44.63 62.6075 44.139C60.8349 43.6488 59.0523 43.0934 57.2588 42.4735C55.4653 41.8553 53.8324 41.0865 52.3593 40.168C50.8862 39.2504 49.7017 38.0441 48.8049 36.5493C47.9082 35.0544 47.4598 33.1547 47.4598 30.8492C47.4598 28.4576 48.1106 26.3872 49.4131 24.6356C50.7155 22.8856 52.5517 21.5296 54.9216 20.5693C57.2914 19.6081 60.0344 19.1279 63.1512 19.1279C65.798 19.1279 68.4037 19.5119 70.966 20.2807C73.5274 21.0494 75.7902 22.0741 77.7552 23.3557L75.3209 28.0946Z" fill="white"/>
<path fill-rule="evenodd" clip-rule="evenodd" d="M89.6045 53.0747H116.76V48.207H89.6045V53.0747Z" fill="white"/>
<path fill-rule="evenodd" clip-rule="evenodd" d="M100.492 19.5771H106.384L126.303 64.4112H120.155L103.247 25.4052L86.4649 64.4112H80.5098L100.492 19.5771Z" fill="white"/>
<path fill-rule="evenodd" clip-rule="evenodd" d="M149.041 38.1504L168.703 64.4104H161.785L145.262 42.6977L149.041 38.1504Z" fill="white"/>
<path fill-rule="evenodd" clip-rule="evenodd" d="M131.556 19.5762H137.256V45.6438L160.697 19.5762H167.486L137.256 52.6254V64.4102H131.556V19.5762Z" fill="white"/>
<path fill-rule="evenodd" clip-rule="evenodd" d="M174.299 64.3126H180V19.4785H174.299V64.3126Z" fill="white"/>
<path fill-rule="evenodd" clip-rule="evenodd" d="M36.5718 29.6965C34.8636 27.9031 32.8576 26.5161 30.5513 25.5332C28.2451 24.5511 25.876 24.0601 23.4426 24.0601C21.0083 24.0601 18.723 24.5085 16.589 25.4052C14.4534 26.302 12.5637 27.5726 10.9208 29.2164C9.27616 30.8601 8.00632 32.7607 7.10957 34.9164C6.21282 37.073 5.76445 39.4102 5.76445 41.929C5.76445 44.3632 6.21282 46.6687 7.10957 48.8461C8.00632 51.0244 9.27616 52.925 10.9208 54.547C12.5637 56.1699 14.4534 57.4514 16.589 58.39C18.723 59.3294 21.0083 59.7995 23.4426 59.7995C25.876 59.7995 28.2233 59.3093 30.4878 58.3264C32.7505 57.3443 34.7791 56.0201 36.5718 54.3554L39.9664 57.878C38.5142 59.2867 36.8813 60.5147 35.0669 61.5604C33.2516 62.6069 31.341 63.4175 29.335 63.9938C27.3274 64.5702 25.2771 64.8588 23.1858 64.8588C19.9409 64.8588 16.9186 64.2724 14.1229 63.0971C11.3256 61.9234 8.87128 60.2905 6.7574 58.1976C4.64352 56.1063 2.98804 53.6611 1.7935 50.8647C0.597274 48.0682 0 45.0902 0 41.929C0 38.7703 0.597274 35.8132 1.7935 33.0585C2.98804 30.3047 4.65439 27.8821 6.78919 25.7892C8.92398 23.6979 11.4009 22.0742 14.2191 20.9215C17.0374 19.7687 20.0898 19.1924 23.3774 19.1924C25.4695 19.1924 27.5089 19.4601 29.4948 19.9929C31.4799 20.5275 33.3587 21.2854 35.1304 22.2666C36.9022 23.2495 38.4932 24.4231 39.9028 25.7892L36.5718 29.6965Z" fill="white"/>
<path fill-rule="evenodd" clip-rule="evenodd" d="M16.4463 28.9841H27.3453V17.4736H16.4463V28.9841Z" fill="#297781"/>
<path fill-rule="evenodd" clip-rule="evenodd" d="M21.5476 15.197V38.8036C21.5476 38.8939 21.5367 38.9851 21.525 39.0755H18.8364C18.8255 38.9851 18.8138 38.8939 18.8138 38.8036V15.7391L12.4663 8.92815L10.4219 6.73731L12.3308 4.7832L15.4259 8.10335L21.1862 14.271C21.4229 14.5194 21.5476 14.8465 21.5476 15.197" fill="white"/>
<path fill-rule="evenodd" clip-rule="evenodd" d="M7.75158 0L5.85352 1.96582L10.4217 6.73732L12.3315 4.78321L7.75158 0Z" fill="#F397BF"/>
<path fill-rule="evenodd" clip-rule="evenodd" d="M15.5074 17.8547L8.25399 10.0918L7.72363 9.52134L9.63926 7.55469L11.2286 9.2662L17.5042 15.9901L15.5074 17.8547Z" fill="white"/>
<path fill-rule="evenodd" clip-rule="evenodd" d="M9.64317 7.5508L7.72336 9.51578L3.1543 4.75599L5.06323 2.7793L9.64317 7.5508Z" fill="#F397BF"/>
<path fill-rule="evenodd" clip-rule="evenodd" d="M22.4355 15.197V38.8036C22.4355 38.8939 22.4464 38.9851 22.4581 39.0755H25.1467C25.1576 38.9851 25.1693 38.8939 25.1693 38.8036V15.7391L31.5168 8.92815L33.5612 6.73731L31.6523 4.7832L28.5572 8.10335L22.7969 14.271C22.5602 14.5194 22.4355 14.8465 22.4355 15.197" fill="white"/>
<path fill-rule="evenodd" clip-rule="evenodd" d="M36.2314 0L31.6523 4.78321L33.5621 6.73732L38.1295 1.96582L36.2314 0Z" fill="#F397BF"/>
<path fill-rule="evenodd" clip-rule="evenodd" d="M28.4753 17.8547L35.7287 10.0918L36.2591 9.52134L34.3435 7.55469L32.7541 9.2662L26.4785 15.9901L28.4753 17.8547Z" fill="white"/>
<path fill-rule="evenodd" clip-rule="evenodd" d="M34.3398 7.5508L36.2597 9.51578L40.8287 4.75599L38.9189 2.7793L34.3398 7.5508Z" fill="#F397BF"/>
</svg>
