<svg width="99" height="36" viewBox="0 0 99 36" fill="none" xmlns="http://www.w3.org/2000/svg">
<path fill-rule="evenodd" clip-rule="evenodd" d="M41.6461 15.161C40.8859 14.6775 40.1023 14.2857 39.2961 13.9859C38.4889 13.6867 37.7112 13.4677 36.9627 13.3296C36.2138 13.191 35.5168 13.1219 34.8718 13.1219C33.397 13.1219 32.2156 13.4104 31.3291 13.9859C30.442 14.5619 29.9983 15.3682 29.9983 16.4055C29.9983 17.3269 30.2457 18.0645 30.7418 18.6175C31.237 19.17 31.882 19.6255 32.677 19.9825C33.4719 20.3401 34.3531 20.6624 35.3209 20.9504C36.2892 21.2388 37.2444 21.5435 38.1897 21.8663C39.134 22.189 40.0098 22.6093 40.8169 23.1275C41.6231 23.6462 42.2682 24.3148 42.7521 25.1323C43.236 25.9507 43.478 26.9934 43.478 28.2606C43.478 29.6202 43.1028 30.8007 42.3544 31.8028C41.6055 32.8054 40.5627 33.5832 39.227 34.1362C37.8904 34.6892 36.3583 34.9654 34.6298 34.9654C33.4317 34.9654 32.2621 34.8038 31.1219 34.4815C29.9811 34.1592 28.9036 33.7213 27.8902 33.1683C26.8759 32.6154 25.9771 31.9703 25.1943 31.2327L26.5766 28.7097C27.3598 29.4473 28.2012 30.0748 29.1 30.593C29.9983 31.1117 30.9255 31.504 31.882 31.7685C32.8381 32.0335 33.7658 32.1658 34.6641 32.1658C36.3461 32.1658 37.6656 31.8322 38.6217 31.1636C39.5777 30.4955 40.0562 29.5737 40.0562 28.3987C40.0562 27.4774 39.8143 26.7343 39.3304 26.1692C38.8465 25.6049 38.2073 25.1386 37.4123 24.7693C36.6174 24.4014 35.7412 24.0841 34.7855 23.8191C33.829 23.5546 32.867 23.2548 31.8992 22.9203C30.9314 22.5867 30.0502 22.1719 29.2553 21.6762C28.4603 21.181 27.8211 20.5301 27.3372 19.7234C26.8533 18.9167 26.6113 17.8916 26.6113 16.6475C26.6113 15.3569 26.9625 14.2396 27.6654 13.2944C28.3682 12.35 29.3591 11.6183 30.6379 11.1001C31.9168 10.5814 33.397 10.3223 35.079 10.3223C36.5072 10.3223 37.9134 10.5295 39.2961 10.9443C40.6783 11.3592 41.8994 11.9121 42.9597 12.6037L41.6461 15.161Z" fill="#2E8D9A"/>
<path fill-rule="evenodd" clip-rule="evenodd" d="M41.6461 15.161C40.8859 14.6775 40.1023 14.2857 39.2961 13.9859C38.4889 13.6867 37.7112 13.4677 36.9627 13.3296C36.2138 13.191 35.5168 13.1219 34.8718 13.1219C33.397 13.1219 32.2156 13.4104 31.3291 13.9859C30.442 14.5619 29.9983 15.3682 29.9983 16.4055C29.9983 17.3269 30.2457 18.0645 30.7418 18.6175C31.237 19.17 31.882 19.6255 32.677 19.9825C33.4719 20.3401 34.3531 20.6624 35.3209 20.9504C36.2892 21.2388 37.2444 21.5435 38.1897 21.8663C39.134 22.189 40.0098 22.6093 40.8169 23.1275C41.6231 23.6462 42.2682 24.3148 42.7521 25.1323C43.236 25.9507 43.478 26.9934 43.478 28.2606C43.478 29.6202 43.1028 30.8007 42.3544 31.8028C41.6055 32.8054 40.5627 33.5832 39.227 34.1362C37.8904 34.6892 36.3583 34.9654 34.6298 34.9654C33.4317 34.9654 32.2621 34.8038 31.1219 34.4815C29.9811 34.1592 28.9036 33.7213 27.8902 33.1683C26.8759 32.6154 25.9771 31.9703 25.1943 31.2327L26.5766 28.7097C27.3598 29.4473 28.2012 30.0748 29.1 30.593C29.9983 31.1117 30.9255 31.504 31.882 31.7685C32.8381 32.0335 33.7658 32.1658 34.6641 32.1658C36.3461 32.1658 37.6656 31.8322 38.6217 31.1636C39.5777 30.4955 40.0562 29.5737 40.0562 28.3987C40.0562 27.4774 39.8143 26.7343 39.3304 26.1692C38.8465 25.6049 38.2073 25.1386 37.4123 24.7693C36.6174 24.4014 35.7412 24.0841 34.7855 23.8191C33.829 23.5546 32.867 23.2548 31.8992 22.9203C30.9314 22.5867 30.0502 22.1719 29.2553 21.6762C28.4603 21.181 27.8211 20.5301 27.3372 19.7234C26.8533 18.9167 26.6113 17.8916 26.6113 16.6475C26.6113 15.3569 26.9625 14.2396 27.6654 13.2944C28.3682 12.35 29.3591 11.6183 30.6379 11.1001C31.9168 10.5814 33.397 10.3223 35.079 10.3223C36.5072 10.3223 37.9134 10.5295 39.2961 10.9443C40.6783 11.3592 41.8994 11.9121 42.9597 12.6037L41.6461 15.161Z" stroke="#2E8D9A" stroke-width="0.295" stroke-linecap="square"/>
<path fill-rule="evenodd" clip-rule="evenodd" d="M49.3535 28.6405H64.0078V26.0137H49.3535V28.6405Z" fill="#2E8D9A"/>
<path fill-rule="evenodd" clip-rule="evenodd" d="M55.2282 10.5645H58.408L69.1571 34.7585H65.8392L56.7152 13.7095L47.6589 34.7585H44.4453L55.2282 10.5645Z" fill="#2E8D9A"/>
<path fill-rule="evenodd" clip-rule="evenodd" d="M49.3535 28.6405H64.0078V26.0137H49.3535V28.6405Z" stroke="#2E8D9A" stroke-width="0.295" stroke-linecap="square"/>
<path fill-rule="evenodd" clip-rule="evenodd" d="M55.2282 10.5645H58.408L69.1571 34.7585H65.8392L56.7152 13.7095L47.6589 34.7585H44.4453L55.2282 10.5645Z" stroke="#2E8D9A" stroke-width="0.295" stroke-linecap="square"/>
<path fill-rule="evenodd" clip-rule="evenodd" d="M81.4282 20.5869L92.0387 34.7577H88.3055L79.3887 23.0408L81.4282 20.5869Z" fill="#2E8D9A"/>
<path fill-rule="evenodd" clip-rule="evenodd" d="M71.9922 10.5645H75.0681V24.6314L87.7177 10.5645H91.3813L75.0681 28.3989V34.7585H71.9922V10.5645Z" fill="#2E8D9A"/>
<path fill-rule="evenodd" clip-rule="evenodd" d="M81.4282 20.5869L92.0387 34.7577H88.3055L79.3887 23.0408L81.4282 20.5869Z" stroke="#2E8D9A" stroke-width="0.295" stroke-linecap="square"/>
<path fill-rule="evenodd" clip-rule="evenodd" d="M71.9922 10.5645H75.0681V24.6314L87.7177 10.5645H91.3813L75.0681 28.3989V34.7585H71.9922V10.5645Z" stroke="#2E8D9A" stroke-width="0.295" stroke-linecap="square"/>
<path fill-rule="evenodd" clip-rule="evenodd" d="M95.0576 34.7057H98.134V10.5117H95.0576V34.7057Z" fill="#2E8D9A"/>
<path fill-rule="evenodd" clip-rule="evenodd" d="M95.0576 34.7047H98.134V10.5107H95.0576V34.7047Z" stroke="#2E8D9A" stroke-width="0.295" stroke-linecap="square"/>
<path fill-rule="evenodd" clip-rule="evenodd" d="M20.7354 16.0249C19.8136 15.057 18.7311 14.3086 17.4866 13.7782C16.242 13.2482 14.9636 12.9832 13.6504 12.9832C12.3368 12.9832 11.1036 13.2252 9.952 13.7091C8.79954 14.193 7.77979 14.8787 6.89321 15.7657C6.00573 16.6528 5.32049 17.6784 4.83657 18.8417C4.35265 20.0054 4.1107 21.2667 4.1107 22.6259C4.1107 23.9395 4.35265 25.1836 4.83657 26.3586C5.32049 27.5341 6.00573 28.5597 6.89321 29.435C7.77979 30.3108 8.79954 31.0023 9.952 31.5088C11.1036 32.0158 12.3368 32.2694 13.6504 32.2694C14.9636 32.2694 16.2303 32.0049 17.4522 31.4745C18.6733 30.9445 19.768 30.23 20.7354 29.3316L22.5672 31.2325C21.7836 31.9927 20.9024 32.6554 19.9233 33.2197C18.9437 33.7844 17.9127 34.2218 16.8302 34.5328C15.7468 34.8439 14.6404 34.9996 13.5118 34.9996C11.7608 34.9996 10.1299 34.6832 8.62123 34.0489C7.1117 33.4156 5.78725 32.5344 4.64652 31.405C3.5058 30.2765 2.61245 28.957 1.96783 27.4479C1.32231 25.9388 1 24.3318 1 22.6259C1 20.9213 1.32231 19.3256 1.96783 17.8391C2.61245 16.353 3.51167 15.0457 4.66368 13.9163C5.81569 12.7878 7.15233 11.9116 8.67314 11.2895C10.194 10.6675 11.8412 10.3564 13.6152 10.3564C14.7442 10.3564 15.8448 10.5009 16.9164 10.7884C17.9876 11.0769 19.0015 11.4859 19.9576 12.0154C20.9137 12.5458 21.7723 13.1791 22.5329 13.9163L20.7354 16.0249Z" fill="#2E8D9A"/>
<path fill-rule="evenodd" clip-rule="evenodd" d="M20.7354 16.0249C19.8136 15.057 18.7311 14.3086 17.4866 13.7782C16.242 13.2482 14.9636 12.9832 13.6504 12.9832C12.3368 12.9832 11.1036 13.2252 9.952 13.7091C8.79954 14.193 7.77979 14.8787 6.89321 15.7657C6.00573 16.6528 5.32049 17.6784 4.83657 18.8417C4.35265 20.0054 4.1107 21.2667 4.1107 22.6259C4.1107 23.9395 4.35265 25.1836 4.83657 26.3586C5.32049 27.5341 6.00573 28.5597 6.89321 29.435C7.77979 30.3108 8.79954 31.0023 9.952 31.5088C11.1036 32.0158 12.3368 32.2694 13.6504 32.2694C14.9636 32.2694 16.2303 32.0049 17.4522 31.4745C18.6733 30.9445 19.768 30.23 20.7354 29.3316L22.5672 31.2325C21.7836 31.9927 20.9024 32.6554 19.9233 33.2197C18.9437 33.7844 17.9127 34.2218 16.8302 34.5328C15.7468 34.8439 14.6404 34.9996 13.5118 34.9996C11.7608 34.9996 10.1299 34.6832 8.62123 34.0489C7.1117 33.4156 5.78725 32.5344 4.64652 31.405C3.5058 30.2765 2.61245 28.957 1.96783 27.4479C1.32231 25.9388 1 24.3318 1 22.6259C1 20.9213 1.32231 19.3256 1.96783 17.8391C2.61245 16.353 3.51167 15.0457 4.66368 13.9163C5.81569 12.7878 7.15233 11.9116 8.67314 11.2895C10.194 10.6675 11.8412 10.3564 13.6152 10.3564C14.7442 10.3564 15.8448 10.5009 16.9164 10.7884C17.9876 11.0769 19.0015 11.4859 19.9576 12.0154C20.9137 12.5458 21.7723 13.1791 22.5329 13.9163L20.7354 16.0249Z" stroke="#2E8D9A" stroke-width="0.295" stroke-linecap="square"/>
<path fill-rule="evenodd" clip-rule="evenodd" d="M9.875 15.6411H15.7565V9.42969H9.875V15.6411Z" fill="#FEFEFE"/>
<path fill-rule="evenodd" clip-rule="evenodd" d="M12.6278 8.20071V20.9396C12.6278 20.9884 12.622 21.0376 12.6156 21.0863H11.1648C11.1589 21.0376 11.1526 20.9884 11.1526 20.9396V8.49323L7.72728 4.81781L6.62402 3.63556L7.65415 2.58105L9.32438 4.37272L12.4328 7.701C12.5606 7.83507 12.6278 8.01157 12.6278 8.20071" fill="#2E8D9A"/>
<path fill-rule="evenodd" clip-rule="evenodd" d="M5.18344 0L4.15918 1.06082L6.62435 3.63569L7.65493 2.58119L5.18344 0Z" fill="#F397BF"/>
<path fill-rule="evenodd" clip-rule="evenodd" d="M9.36838 9.63444L5.45417 5.44531L5.16797 5.13745L6.20171 4.07617L7.05939 4.99977L10.4459 8.62823L9.36838 9.63444Z" fill="#2E8D9A"/>
<path fill-rule="evenodd" clip-rule="evenodd" d="M6.20377 4.07487L5.16777 5.13524L2.70215 2.56669L3.73228 1.5L6.20377 4.07487Z" fill="#F397BF"/>
<path fill-rule="evenodd" clip-rule="evenodd" d="M13.1064 8.20071V20.9396C13.1064 20.9884 13.1123 21.0376 13.1186 21.0863H14.5695C14.5753 21.0376 14.5817 20.9884 14.5817 20.9396V8.49323L18.007 4.81781L19.1103 3.63556L18.0801 2.58105L16.4099 4.37272L13.3015 7.701C13.1737 7.83507 13.1064 8.01157 13.1064 8.20071" fill="#2E8D9A"/>
<path fill-rule="evenodd" clip-rule="evenodd" d="M20.5511 0L18.0801 2.58119L19.1107 3.63569L21.5754 1.06082L20.5511 0Z" fill="#F397BF"/>
<path fill-rule="evenodd" clip-rule="evenodd" d="M16.3666 9.63444L20.2808 5.44531L20.567 5.13745L19.5333 4.07617L18.6756 4.99977L15.2891 8.62823L16.3666 9.63444Z" fill="#2E8D9A"/>
<path fill-rule="evenodd" clip-rule="evenodd" d="M19.5312 4.07487L20.5672 5.13524L23.0329 2.56669L22.0023 1.5L19.5312 4.07487Z" fill="#F397BF"/>
</svg>
